<?xml version="1.0" encoding="UTF-8" standalone="no"?>
<!-- Created with Inkscape (http://www.inkscape.org/) -->

<svg
   xmlns:dc="http://purl.org/dc/elements/1.1/"
   xmlns:cc="http://creativecommons.org/ns#"
   xmlns:rdf="http://www.w3.org/1999/02/22-rdf-syntax-ns#"
   xmlns:svg="http://www.w3.org/2000/svg"
   xmlns="http://www.w3.org/2000/svg"
   xmlns:sodipodi="http://sodipodi.sourceforge.net/DTD/sodipodi-0.dtd"
   xmlns:inkscape="http://www.inkscape.org/namespaces/inkscape"
   width="744.09448"
   height="524.40942"
   id="svg2"
   version="1.1"
   inkscape:version="0.48.3.1 r9886"
   sodipodi:docname="master.svg">
  <defs
     id="defs4" />
  <sodipodi:namedview
     id="base"
     pagecolor="#ffffff"
     bordercolor="#666666"
     borderopacity="1.0"
     inkscape:pageopacity="0.0"
     inkscape:pageshadow="2"
     inkscape:zoom="0.98994949"
     inkscape:cx="322.66406"
     inkscape:cy="256.30309"
     inkscape:document-units="px"
     inkscape:current-layer="layer1"
     showgrid="false"
     inkscape:window-width="1366"
     inkscape:window-height="744"
     inkscape:window-x="0"
     inkscape:window-y="24"
     inkscape:window-maximized="1" />
  <metadata
     id="metadata7">
    <rdf:RDF>
      <cc:Work
         rdf:about="">
        <dc:format>image/svg+xml</dc:format>
        <dc:type
           rdf:resource="http://purl.org/dc/dcmitype/StillImage" />
        <dc:title></dc:title>
      </cc:Work>
    </rdf:RDF>
  </metadata>
  <g
     inkscape:label="Layer 1"
     inkscape:groupmode="layer"
     id="layer1"
     transform="translate(0,-527.95272)">
    <g
       id="g3851"
       inkscape:export-xdpi="26.744879"
       inkscape:export-ydpi="26.744879">
      <path
         sodipodi:nodetypes="ccssssscssscsscssscssscssssssccsscscssscscsssssscssscssscssscsssssssscssssscsssssssssscsssssscssscssscscc"
         inkscape:connector-curvature="0"
         id="path3802"
         d="m 378.28079,740.32137 c -0.78571,-0.1791 -3.19642,-0.6829 -5.35714,-1.1197 -5.51299,-1.1143 -14.88055,-5.3156 -22.85714,-10.2513 -3.73214,-2.3094 -9.52778,-5.6758 -12.87919,-7.481 -3.3514,-1.80519 -7.14597,-4.03161 -8.43235,-4.94759 -2.84094,-2.02293 -5.81419,-6.56717 -6.31465,-9.65117 -0.2946,-1.81535 -0.98722,-2.57407 -3.44811,-3.77711 l -3.07947,-1.50545 -2.3874,1.47288 c -3.23667,1.99683 -9.213,3.32478 -12.91346,2.8694 -1.67496,-0.20612 -5.03817,-1.3373 -7.47381,-2.51373 l -4.42845,-2.13898 -2.55381,1.57835 c -3.57415,2.20894 -10.11187,2.72126 -14.30262,1.12081 l -3.22247,-1.23068 -2.22488,1.87211 c -3.95375,3.32686 -6.40143,4.22688 -11.41687,4.19802 -3.97764,-0.0229 -5.40182,-0.40176 -9.05089,-2.40784 l -4.33048,-2.3807 -3.00454,2.71443 c -7.88105,7.12006 -19.31097,7.9955 -28.53655,2.18569 -2.76098,-1.73873 -7.92654,-7.09258 -9.27606,-9.61419 l -0.86521,-1.61665 -2.47446,2.54758 c -5.9235,6.09854 -12.79675,9.05103 -21.07034,9.05103 -20.59897,0 -34.8192,-20.49253 -33.20913,-47.85714 0.75706,-12.86713 3.1995,-23.58815 8.31214,-36.486 5.97437,-15.07176 14.19899,-25.52767 23.4273,-29.78298 5.53101,-2.55043 12.49723,-2.60193 17.65576,-0.13053 4.53166,2.17107 9.70824,7.30932 12.0808,11.99133 12.06409,31.58685 -18.09486,44.01051 9.31673,14.9379 5.38438,-5.53513 12.18182,-7.1488 18.79272,-4.46126 3.80022,1.54491 8.37628,6.64903 9.96074,11.11019 l 1.20116,3.38193 2.18107,-2.70791 c 4.50995,-5.59935 11.94771,-9.97532 16.97736,-9.98855 3.37658,-0.009 3.76025,-0.7499 4.81135,-9.29269 1.47304,-11.97197 2.22723,-15.26671 4.04148,-17.65552 2.49945,-3.29102 6.29155,-4.28794 11.94556,-3.14043 7.57944,1.53829 11.96576,5.69173 12.02246,11.38417 0.0238,2.38509 -2.36031,19.5687 -3.43646,24.76892 l -0.44345,2.14286 3.36342,-3.09971 c 7.1618,-6.60027 16.87742,-8.86339 24.95708,-5.8134 4.85745,1.83364 9.2319,5.49763 11.22279,9.4001 0.76525,1.50001 1.69082,2.7273 2.05682,2.7273 0.366,0 1.63875,-1.41465 2.82835,-3.14366 3.85168,-5.59824 11.04831,-7.66335 16.6872,-4.78849 l 2.65495,1.35357 1.24608,-2.13583 c 1.51155,-2.59088 5.68508,-4.85702 8.94512,-4.85702 6.56601,0 13.9255,4.14487 16.60774,9.35349 l 1.44964,2.81505 2.83607,-2.90583 c 5.83453,-5.97803 13.86825,-9.04245 21.62295,-8.24796 7.89738,0.80911 12.40605,3.63789 15.20162,9.53763 0.87988,1.8569 1.67524,3.47686 1.76745,3.59989 0.0922,0.12304 2.83608,-1.11794 6.09747,-2.75774 7.2837,-3.66217 20.72189,-8.96446 25.53591,-10.07567 4.19882,-0.9692 6.70351,-0.21669 9.70446,2.91563 l 1.90448,1.98785 2.24021,-2.09267 c 7.16362,-6.69183 16.69484,-6.73299 23.50079,-0.10149 1.64643,1.60422 2.77502,2.24086 3.08456,1.74001 0.26848,-0.43441 1.65923,-1.27915 3.09056,-1.87719 2.86404,-1.19668 7.58991,-0.60012 11.57622,1.46128 1.99228,1.03025 2.11385,0.99361 3.59205,-1.08232 0.84148,-1.18177 2.5215,-2.6614 3.73335,-3.28807 2.85589,-1.47684 8.63597,-1.03257 12.45343,0.9572 l 2.84416,1.48246 2.4432,-3.26212 c 3.84663,-5.13593 5.77184,-6.23397 10.89089,-6.21156 5.72352,0.0251 9.47167,2.37405 11.32771,7.09916 0.69386,1.76642 1.12046,3.61954 0.948,4.11804 -0.18607,0.53785 1.12048,1.57823 3.21352,2.55885 l 3.52709,1.6525 2.2261,-2.53539 c 1.29605,-1.47612 3.31794,-2.82031 4.83943,-3.21734 7.1913,-1.87657 17.90105,3.98883 19.12272,10.47292 0.34678,1.84057 -0.32597,7.62976 -2.13204,18.34669 -2.90523,17.2392 -2.95336,16.81184 1.89559,16.83148 3.84468,0.0156 7.17261,1.6127 9.15658,4.3944 5.59669,7.84707 -2.70303,25.44448 -14.3581,30.44267 -4.8998,2.10125 -12.62446,0.96243 -16.50858,-2.43378 -1.01035,-0.88344 -1.44796,-0.72869 -3.57142,1.26291 -6.53674,6.13082 -14.87216,5.3128 -23.0947,-2.26647 l -3.25387,-2.99931 0,4.95085 c 0,4.65866 -0.13701,5.08053 -2.32143,7.14812 -3.33957,3.16096 -5.31629,3.98846 -9.41218,3.94017 -4.73999,-0.0559 -8.16682,-1.56893 -11.22829,-4.95761 -2.46007,-2.723 -2.51321,-2.7418 -4.94103,-1.74715 -3.64145,1.49187 -8.72546,1.28203 -11.57268,-0.47765 l -2.41092,-1.49003 -3.16388,3.2265 c -6.35025,6.47594 -15.65225,8.9805 -23.60166,6.35474 -4.86191,-1.60593 -6.62574,-2.68873 -10.68109,-6.557 l -3.26173,-3.11127 -1.38112,1.52714 c -3.28923,3.63697 -11.2199,6.06425 -17.65435,5.40333 -4.92785,-0.50617 -12.04813,-3.62584 -15.80579,-6.9251 l -2.31722,-2.03454 -1.67288,5.78941 c -4.73031,16.37043 -14.13134,28.45113 -25.42989,32.67843 -3.69002,1.3807 -13.44448,2.4391 -16.35815,1.7751 z"
         style="fill:#000000;fill-opacity:1;stroke:none" />
      <g
         transform="translate(20,-278.57143)"
         id="g3820">
        <path
           inkscape:connector-curvature="0"
           id="path2990"
           style="font-size:130.62467957px;font-style:normal;font-variant:normal;font-weight:bold;font-stretch:normal;line-height:125%;letter-spacing:0px;word-spacing:0px;fill:#ffffff;fill-opacity:1;stroke:none;font-family:Reklame Script DEMO;-inkscape-font-specification:Reklame Script DEMO Bold"
           d="m 152.55642,935.80974 c 0,2.35124 3.00437,7.31498 5.74749,6.79248 2.35124,-0.39187 5.74749,-1.17562 9.5356,-1.95937 1.43687,2.08999 2.35124,4.70249 2.35124,8.35998 0,12.01746 -7.70687,21.81432 -19.5937,21.81432 -7.05373,0 -11.6256,-7.57624 -11.6256,-20.76932 0,-27.56178 16.98122,-60.74048 24.81869,-60.74048 1.82875,0 4.83312,1.5675 4.83312,5.61686 0.35387,8.3117 -13.74893,24.18741 1.04499,25.07994 2.48187,0 8.75186,-9.14374 8.75186,-20.6387 0,-9.79684 -7.96812,-18.41808 -15.67496,-18.41808 -19.46306,0 -33.3093,40.88555 -33.3093,63.4836 0,22.20617 9.66624,37.09741 25.73306,37.09741 16.4587,0 24.42682,-18.41809 24.42682,-28.21494 0,-6.53122 -2.35125,-10.97247 -4.96374,-13.71559 3.65749,-0.5225 7.44561,-0.91437 11.6256,-1.04499 1.69812,0 1.82874,-1.82875 1.82874,-2.74312 0,-1.045 -2.22062,-3.135 -4.04936,-5.35561 -0.91437,-1.045 -1.69813,-1.43688 -4.70249,-1.43688 -3.26561,0 -10.05811,1.045 -14.89121,3.00437 -4.70249,-1.43687 -11.88685,-0.39187 -11.88685,3.78812"
           sodipodi:nodetypes="cccssssccsssssccscscc" />
        <path
           inkscape:connector-curvature="0"
           id="path2992"
           style="font-size:130.62467957px;font-style:normal;font-variant:normal;font-weight:bold;font-stretch:normal;line-height:125%;letter-spacing:0px;word-spacing:0px;fill:#ffffff;fill-opacity:1;stroke:none;font-family:Reklame Script DEMO;-inkscape-font-specification:Reklame Script DEMO Bold"
           d="m 182.247,959.32218 c 0,16.32807 9.40499,25.60244 19.46308,25.60244 14.49932,0 21.55307,-19.20184 21.55307,-30.56618 0,-3.65749 -1.69812,-6.26998 -3.78811,-6.26998 -1.82875,0 -1.82875,1.43687 -1.82875,1.43687 0,8.62122 -8.09874,24.94931 -18.15683,24.94931 -6.66185,0 -9.0131,-4.57187 -9.0131,-10.71122 0,-10.58059 2.35124,-17.50371 2.35124,-17.50371 0,0 1.95938,5.48624 7.57623,5.48624 10.31934,0 14.89122,-15.15248 14.89122,-31.87242 0,-12.01746 -5.7475,-15.93621 -10.71123,-15.93621 -11.49496,0 -22.33682,33.57056 -22.33682,55.38486 m 12.1481,-18.67933 c 1.43687,-9.53559 5.09436,-20.24683 8.22935,-27.30056 0.78375,-1.82874 1.43687,-2.35124 1.95937,-2.35124 0.65312,0 1.5675,0.65313 1.5675,6.13936 0,12.01746 -3.91875,26.77806 -8.49061,26.77806 -2.61249,0 -3.26561,-3.26562 -3.26561,-3.26562" />
        <path
           inkscape:connector-curvature="0"
           id="path2994"
           style="font-size:130.62467957px;font-style:normal;font-variant:normal;font-weight:bold;font-stretch:normal;line-height:125%;letter-spacing:0px;word-spacing:0px;fill:#ffffff;fill-opacity:1;stroke:none;font-family:Reklame Script DEMO;-inkscape-font-specification:Reklame Script DEMO Bold"
           d="m 247.25523,967.55153 c 0,5.22499 3.39625,9.66623 9.0131,9.66623 9.92747,0 15.28309,-14.76059 15.28309,-21.6837 0,-3.91873 -3.78811,-3.52686 -3.78811,-3.52686 -0.91438,7.83747 -3.6575,16.32808 -7.96811,16.32808 -2.74311,0 -4.31061,-1.95937 -4.31061,-6.26998 0,-6.4006 9.27435,-70.53734 11.23372,-80.9873 0.5225,-2.74312 -4.18,-4.44124 -8.75185,-4.44124 -0.5225,0 -1.82875,0.13062 -2.09,2.61249 -0.65312,5.09436 -2.48187,20.63871 -4.31061,30.82743 0,0 -3.26563,-3.135 -7.31499,-3.135 -17.63431,0 -25.60243,29.91307 -25.60243,48.33113 0,11.23372 3.91875,25.86369 15.67496,25.86369 5.8781,0 10.84185,-8.88248 12.53997,-13.58497 l 0.39187,0 m -18.80995,-4.44123 c 0,-18.41807 7.57624,-49.63738 16.98121,-49.63738 1.95936,0 2.35124,2.48187 2.35124,4.57186 0,4.31061 -2.22062,10.44998 -3.26562,13.97684 1.30625,1.95937 2.6125,2.35125 3.91874,2.6125 0,5.8781 -10.31935,37.0974 -17.11183,37.0974 -2.61249,0 -2.87374,-5.87811 -2.87374,-8.62122" />
        <path
           inkscape:connector-curvature="0"
           id="path2996"
           style="font-size:130.62467957px;font-style:normal;font-variant:normal;font-weight:bold;font-stretch:normal;line-height:125%;letter-spacing:0px;word-spacing:0px;fill:#ffffff;fill-opacity:1;stroke:none;font-family:Reklame Script DEMO;-inkscape-font-specification:Reklame Script DEMO Bold"
           d="m 296.04558,968.59653 c 0.26125,3.13499 3.39625,8.62123 9.40498,8.62123 9.92746,0 15.28309,-14.76059 15.28309,-21.6837 0,-3.91873 -3.78812,-3.52686 -3.78812,-3.52686 -0.91437,7.83747 -2.74312,16.32808 -9.5356,16.32808 -4.44124,0 -5.48624,-4.04937 -5.48624,-10.0581 0,-10.31934 3.26562,-23.90433 7.31498,-38.53428 0.78375,-3.00436 -4.31061,-3.13499 -5.48623,-3.52686 0,0 0.13062,-0.78375 0.13062,-1.43688 0,-3.91873 -3.91875,-9.66622 -12.80122,-9.66622 -15.67494,0 -26.51681,23.51246 -26.51681,47.15551 0,15.93619 7.315,25.86368 16.98121,25.86368 6.4006,0 11.75623,-4.96374 13.84622,-9.5356 l 0.65312,0 m -20.50807,-10.5806 c 0,-13.71557 5.87812,-44.93489 15.41371,-44.93489 2.48187,0 2.48187,3.135 2.48187,4.31062 0,4.70248 -1.69813,9.27435 -4.44124,13.06247 1.82874,2.08999 6.00873,2.87374 6.00873,2.87374 0,4.70248 -7.05374,35.92179 -14.76058,35.92179 -3.39624,0 -4.70249,-3.13501 -4.70249,-11.23373" />
        <path
           inkscape:connector-curvature="0"
           id="path2998"
           style="font-size:130.62467957px;font-style:normal;font-variant:normal;font-weight:bold;font-stretch:normal;line-height:125%;letter-spacing:0px;word-spacing:0px;fill:#ffffff;fill-opacity:1;stroke:none;font-family:Reklame Script DEMO;-inkscape-font-specification:Reklame Script DEMO Bold"
           d="m 339.78036,932.28287 c -1.30625,6.66185 -3.39624,20.24683 -3.39624,25.86369 0,10.58059 2.48187,19.98557 11.36434,19.98557 9.14372,0 14.76059,-10.0581 14.76059,-15.67496 0,-3.26561 -2.87374,-3.52686 -2.87374,-3.52686 -1.045,3.39623 -3.6575,10.31935 -7.96811,10.31935 -3.65748,0 -5.35561,-3.26563 -5.35561,-9.92748 0,-17.37307 6.92311,-34.3543 7.96811,-47.67801 0.39187,-4.17998 -5.61687,-6.53123 -9.14373,-6.53123 -1.17562,0 -2.35125,0 -2.87374,1.17562 -7.31498,14.10745 -12.27873,29.65182 -17.24246,44.15114 l -0.5225,0 c 0,-12.93183 3.65749,-25.07995 5.22499,-37.61991 0.39187,-3.26561 -2.6125,-3.52686 -4.17999,-3.52686 -7.9681,0 -11.36435,26.25559 -11.36435,54.07861 0,9.92747 1.5675,16.98121 7.44561,16.98121 2.74311,0 4.44124,-1.95937 4.44124,-1.95937 -0.13063,-12.2787 6.79248,-34.48492 12.14809,-46.11051 l 1.5675,0" />
        <path
           sodipodi:nodetypes="cccccsssscccssccsc"
           inkscape:connector-curvature="0"
           id="path3000"
           style="font-size:130.62467957px;font-style:normal;font-variant:normal;font-weight:bold;font-stretch:normal;line-height:125%;letter-spacing:0px;word-spacing:0px;fill:#ffffff;fill-opacity:1;stroke:none;font-family:Reklame Script DEMO;-inkscape-font-specification:Reklame Script DEMO Bold"
           d="m 313.12001,982.83106 c -6.13935,-1.045 -7.25404,6.32221 7.57606,12.01742 10.24986,4.51814 59.23622,49.37702 73.43437,-23.24758 4.31061,-19.98556 5.87812,-39.97116 7.44561,-50.2905 0.39187,-3.00437 -4.70249,-3.52687 -5.48624,-3.52687 0,0 0.13063,-1.045 0.13063,-1.82874 0,-8.35998 -6.00874,-10.0581 -11.23372,-10.0581 -16.4587,0 -27.30056,20.24684 -27.30056,43.88989 0,15.93619 6.79249,25.86368 17.24246,25.86368 5.09435,0 9.40497,-7.05373 11.62559,-10.18872 -11.21633,68.81656 -46.11076,28.1192 -73.4342,17.36952 m 54.75487,-27.297 c 0,-13.71557 6.66187,-41.66927 16.19746,-41.66927 2.48187,0 3.91874,2.6125 3.91874,5.35561 0,3.13499 -0.65312,10.05811 -2.08999,13.32372 1.82874,2.08999 3.52687,1.95937 3.52687,1.95937 -0.91438,13.06246 -8.22937,32.91742 -15.15247,32.91742 -3.39624,0 -6.40061,-3.78812 -6.40061,-11.88685" />
      </g>
      <g
         transform="translate(20,-278.57143)"
         style="fill:#71c837"
         id="g3814">
        <path
           inkscape:connector-curvature="0"
           id="path3002"
           style="font-size:130.62467957px;font-style:normal;font-variant:normal;font-weight:bold;font-stretch:normal;line-height:125%;letter-spacing:0px;word-spacing:0px;fill:#71c837;fill-opacity:1;stroke:none;font-family:Reklame Script DEMO;-inkscape-font-specification:Reklame Script DEMO Bold"
           d="m 413.15673,926.66601 c 0.91438,-1.045 10.84186,-6.26998 14.23809,-6.40061 1.30625,0 1.69813,3.52687 3.00437,3.52687 3.26562,0 12.1481,-7.18437 12.1481,-12.1481 0,-2.35124 -3.00437,-5.74748 -4.31062,-5.74748 -1.95937,0 -33.70117,11.36435 -34.22366,16.85058 -0.26125,3.39624 1.045,7.96811 3.39624,9.92748 8.62122,1.04499 20.89995,10.71123 20.89995,24.03494 0,8.88247 -3.91875,14.89121 -12.1481,14.89121 -7.57622,0 -9.27435,-6.40061 -9.27435,-7.57623 0,-1.17562 5.61686,-11.49498 5.61686,-15.67496 0,-1.17562 -4.04937,-4.83312 -5.87811,-4.83312 -4.70248,0 -7.83748,10.31936 -7.83748,15.15247 0,10.31934 10.58061,22.59807 21.55307,22.59807 9.0131,0 16.98121,-5.61688 16.98121,-20.6387 0,-22.72868 -24.03494,-33.43992 -24.03494,-33.43992 l -0.13063,-0.5225" />
        <path
           inkscape:connector-curvature="0"
           id="path3004"
           style="font-size:130.62467957px;font-style:normal;font-variant:normal;font-weight:bold;font-stretch:normal;line-height:125%;letter-spacing:0px;word-spacing:0px;fill:#71c837;fill-opacity:1;stroke:none;font-family:Reklame Script DEMO;-inkscape-font-specification:Reklame Script DEMO Bold"
           d="m 438.64896,959.32218 c 0,16.32807 9.40498,25.60244 19.46307,25.60244 14.49933,0 21.55308,-19.20184 21.55308,-30.56618 0,-3.65749 -1.69813,-6.26998 -3.78812,-6.26998 -1.82874,0 -1.82875,1.43687 -1.82875,1.43687 0,8.62122 -8.09874,24.94931 -18.15683,24.94931 -6.66185,0 -9.0131,-4.57187 -9.0131,-10.71122 0,-10.58059 2.35125,-17.50371 2.35125,-17.50371 0,0 1.95937,5.48624 7.57623,5.48624 10.31934,0 14.89121,-15.15248 14.89121,-31.87242 0,-12.01746 -5.74749,-15.93621 -10.71122,-15.93621 -11.49496,0 -22.33682,33.57056 -22.33682,55.38486 m 12.14809,-18.67933 c 1.43687,-9.53559 5.09437,-20.24683 8.22936,-27.30056 0.78374,-1.82874 1.43687,-2.35124 1.95937,-2.35124 0.65312,0 1.56749,0.65313 1.56749,6.13936 0,12.01746 -3.91874,26.77806 -8.4906,26.77806 -2.61249,0 -3.26562,-3.26562 -3.26562,-3.26562" />
        <path
           inkscape:connector-curvature="0"
           id="path3006"
           style="font-size:130.62467957px;font-style:normal;font-variant:normal;font-weight:bold;font-stretch:normal;line-height:125%;letter-spacing:0px;word-spacing:0px;fill:#71c837;fill-opacity:1;stroke:none;font-family:Reklame Script DEMO;-inkscape-font-specification:Reklame Script DEMO Bold"
           d="m 498.17094,940.25098 c 0,2.35124 1.045,24.94931 1.30625,29.39055 0.39187,6.4006 1.95938,13.45434 9.0131,13.45434 2.48187,0 3.65749,-1.82874 3.65749,-1.82874 0,-21.8143 7.44562,-49.76803 14.89122,-70.40671 1.69812,-4.70248 3.78811,-8.22935 3.78811,-9.27435 0,-2.35124 -3.13499,-3.00437 -4.96374,-3.00437 -8.22934,0 -16.58933,48.33114 -17.89558,56.03799 l -0.91437,0 c -0.65312,-13.3237 0.78375,-31.74181 3.00437,-45.45739 0.39187,-2.35124 -5.35562,-4.17999 -7.05373,-4.17999 -1.82875,0 -2.74312,1.045 -3.00437,2.35125 -2.48187,13.97682 -6.66187,29.65181 -11.36435,42.71427 l -0.65312,0 c -0.13063,-1.43687 -0.39188,-3.78812 -0.39188,-6.26999 0,-11.62558 0.91438,-19.46309 3.00437,-30.1743 0.5225,-3.00436 -5.09437,-5.35561 -8.09873,-5.35561 -4.04936,0 -5.48624,24.03495 -5.48624,33.30929 0,10.71122 0.52251,35.79117 9.53561,35.79117 1.17562,0 3.00436,-0.26126 3.65749,-1.43688 0.52249,-11.75621 3.39624,-25.34119 7.31498,-35.66053 l 0.65312,0" />
        <path
           inkscape:connector-curvature="0"
           id="path3008"
           style="font-size:130.62467957px;font-style:normal;font-variant:normal;font-weight:bold;font-stretch:normal;line-height:125%;letter-spacing:0px;word-spacing:0px;fill:#71c837;fill-opacity:1;stroke:none;font-family:Reklame Script DEMO;-inkscape-font-specification:Reklame Script DEMO Bold"
           d="m 549.64931,956.44844 c -0.39188,7.4456 1.17563,18.0262 11.1031,18.0262 7.4456,0 14.23809,-12.01747 14.23809,-16.98121 0,-3.13499 -2.35125,-3.26561 -3.52687,-3.26561 0,0 -2.35125,12.01747 -7.96811,12.01747 -4.44123,0 -5.48623,-7.05374 -5.48623,-10.0581 0,-9.79684 6.26998,-38.14241 6.26998,-42.97552 0,-2.22062 -4.83311,-4.96374 -8.62123,-4.96374 -1.17562,0 -2.08999,0.39188 -2.22062,1.5675 -1.56749,13.8462 -9.01311,40.36304 -18.41808,55.64611 l -1.82874,-0.65312 c 0,-16.19745 3.65749,-34.48494 8.35998,-50.68238 -1.17562,-1.82874 -4.70249,-3.52687 -6.40061,-3.52687 -4.83311,0 -12.93184,32.78681 -12.93184,48.06989 0,8.88247 9.14373,17.76495 14.89121,17.76495 6.00873,0 10.0581,-13.84622 11.75622,-19.85495 l 0.78375,-0.13062" />
      </g>
    </g>
    <text
       xml:space="preserve"
       style="font-size:24px;font-style:normal;font-weight:normal;line-height:125%;letter-spacing:0px;word-spacing:0px;fill:#000000;fill-opacity:1;stroke:none;font-family:Sans"
       x="630.33521"
       y="568.49908"
       id="text3847"
       sodipodi:linespacing="125%"><tspan
         sodipodi:role="line"
         id="tspan3849"
         x="630.33521"
         y="568.49908">217X45</tspan></text>
  </g>
</svg>
